<?xml version="1.0" encoding="utf-8"?>
<svg version="1.1" xmlns:xlink="http://www.w3.org/1999/xlink" width="46px" height="50px" xmlns="http://www.w3.org/2000/svg">
  <g transform="matrix(1 0 0 1 -556 -283 )">
    <path d="M 27.030637254902 4.4921875  C 26.4105392156863 3.87834821428572  25.6683006535948 3.57142857142856  24.8039215686274 3.57142857142856  C 23.9395424836601 3.57142857142856  23.1973039215686 3.87834821428572  22.5772058823529 4.4921875  C 21.9571078431372 5.10602678571428  21.6470588235294 5.8407738095238  22 6.69642857142855  L 22 25  L 21 25  L 21 10.2678571428572  C 20.7450980392157 9.41220238095235  20.4350490196078 8.67745535714283  19.8149509803922 8.06361607142856  C 19.1948529411765 7.44977678571428  18.4526143790849 7.14285714285717  17.5882352941177 7.14285714285717  C 16.7238562091503 7.14285714285717  15.9816176470588 7.44977678571428  15.3615196078431 8.06361607142856  C 14.7414215686274 8.67745535714283  14.4313725490196 9.41220238095235  15 10.2678571428572  L 15 25  L 14.4313725490196 31.8096  L 14.4313725490196 32.1428571428571  L 10.0906862745098 26.4229910714286  C 9.37663398692814 25.4743303571429  8.41830065359477 25  7.21568627450984 25  C 6.21977124183002 25  5.36948529411768 25.3487723214286  4.6648284313726 26.0463169642857  C 3.9601715686274 26.7438616071429  3.60784313725492 27.5855654761905  3.60784313725492 28.5714285714286  C 3.60784313725492 29.3712797619048  3.85212418300648 30.0874255952381  4.34068627450984 30.7198660714286  L 15.1642156862745 45.0055803571428  C 15.8782679738562 45.9542410714286  16.8366013071895 46.4285714285714  18.0392156862745 46  L 37.4313725490196 46  C 38.0702614379085 46.4285714285714  38.6433823529412 46.2239583333333  39.1507352941177 45.8147321428572  C 39.6580882352941 45.405505952381  39.9775326797386 44.8846726190476  40.1090686274509 44.2522321428572  L 42.251225490196 32.9520089285714  C 42.3451797385621 32.3567708333333  42.3921568627451 31.8080357142857  42 31.3058035714286  L 42 17.4107142857143  C 42.3921568627451 16.5550595238095  42.0821078431372 15.8203125  41.4620098039215 15.2064732142857  C 40.8419117647059 14.5926339285714  40.0996732026144 14.2857142857143  39.2352941176471 14.2857142857143  C 38.3709150326797 14.2857142857143  37.6286764705883 14.5926339285714  37.0085784313726 15.2064732142857  C 36.3884803921569 15.8203125  36.0784313725491 16.5550595238095  36.0784313725491 17.4107142857143  L 36.0784313725491 25  L 35 25  L 35 10.2678571428572  C 35.1764705882352 9.41220238095235  34.8664215686274 8.67745535714283  34.2463235294117 8.06361607142856  C 33.626225490196 7.44977678571428  32.8839869281046 7.14285714285717  32.0196078431372 7.14285714285717  C 31.15522875817 7.14285714285717  30.4129901960785 7.44977678571428  29.7928921568628 8.06361607142856  C 29.1727941176471 8.67745535714283  28.8627450980392 9.41220238095235  28 10.2678571428572  L 28 25  L 28 6.69642857142855  C 27.9607843137255 5.8407738095238  27.6507352941177 5.10602678571428  27.030637254902 4.4921875  Z M 21.2665441176471 0.990513392857167  C 22.3470179738562 0.330171130952408  23.5261437908497 0  24.8039215686274 0  C 26.0816993464052 0  27.2608251633988 0.330171130952408  28.3412990196078 0.990513392857167  C 29.4217728758169 1.65085565476193  30.2532679738562 2.54836309523807  30.8357843137255 3.68303571428572  C 31.1928104575163 3.60863095238096  31.5874183006536 3.57142857142856  32.0196078431372 3.57142857142856  C 33.8799019607843 3.57142857142856  35.4724264705883 4.22712053571428  36.7971813725491 5.53850446428572  C 38.1219362745098 6.84988839285717  38.7843137254902 8.42633928571428  38.7843137254902 10.2678571428572  L 38.7843137254902 10.7421875  C 40.7573529411765 10.6305803571428  42.4532271241831 11.225818452381  43.8719362745098 12.5279017857143  C 45.2906454248366 13.8299851190476  46 15.4575892857143  46 17.4107142857143  L 46 31.3058035714286  C 46 32.0498511904762  45.9248366013072 32.8218005952381  45.7745098039215 33.6216517857143  L 43.6323529411765 44.8939732142857  C 43.3692810457517 46.3634672619048  42.6505310457517 47.5818452380952  41.4761029411765 48.5491071428572  C 40.3016748366013 49.516369047619  38.9534313725491 50  37.4313725490196 50  L 18.0392156862745 50  C 16.9117647058823 50  15.8359885620915 49.7442336309524  14.811887254902 49.2327008928572  C 13.7877859477125 48.7211681547619  12.9375 48.0282738095238  12.2610294117648 47.1540178571428  L 1.4375 32.8683035714286  C 0.479166666666629 31.6034226190476  0 30.171130952381  0 28.5714285714286  C 0 26.5997023809524  0.704656862745082 24.9162946428572  2.11397058823525 23.5212053571428  C 3.52328431372553 22.1261160714286  5.22385620915031 21.4285714285714  7.21568627450984 21.4285714285714  C 8.68137254901956 21.4285714285714  9.8839869281046 21.7447916666667  11 22.3772321428572  L 11 10.2678571428572  C 10.8235294117648 8.42633928571428  11.4859068627451 6.84988839285717  12.8106617647059 5.53850446428572  C 14.1354166666666 4.22712053571428  15.7279411764706 3.57142857142856  17.5882352941177 3.57142857142856  C 18.0204248366013 3.57142857142856  18.4150326797386 3.60863095238096  18.7720588235294 3.68303571428572  C 19.3545751633987 2.54836309523807  20.1860702614379 1.65085565476193  21.2665441176471 0.990513392857167  Z " fill-rule="nonzero" fill="#333333" stroke="none" transform="matrix(1 0 0 1 556 283 )" />
  </g>
</svg>