<?xml version="1.0" encoding="utf-8"?>
<svg version="1.1" xmlns:xlink="http://www.w3.org/1999/xlink" width="43px" height="50px" xmlns="http://www.w3.org/2000/svg">
  <g transform="matrix(1 0 0 1 -327 -283 )">
    <path d="M 33.5797526041667 15.3041294642857  C 34.6715494791667 15.9830729166667  35.4973958333333 16.899181547619  36.0572916666667 18.0524553571428  C 37.1770833333333 18.0524553571428  38.1755642361111 18.266369047619  39.052734375 18.6941964285714  C 41.6842447916667 19.8660714285714  43 21.968005952381  43 25  L 43 29.9386160714286  C 43 31.6871279761905  42.7853732638889 33.4170386904762  42.3561197916667 35.1283482142857  L 39.9765625 44.5870535714286  C 39.5846354166667 46.186755952381  38.7401258680555 47.4888392857143  37.4430338541667 48.4933035714286  C 36.1459418402778 49.4977678571428  34.6762152777778 50  33.0338541666667 50  L 14.3333333333333 50  C 12.3550347222222 50  10.666015625 49.3024553571428  9.26627604166669 47.9073660714286  C 7.86653645833331 46.5122767857143  7.16666666666669 44.828869047619  8 42.8571428571429  L 8 31.6685267857143  L 0.475911458333314 14.1462053571428  C 0.158637152777771 13.3091517857143  0 12.4627976190476  0 11.6071428571428  C 0 9.63541666666669  0.699869791666686 7.95200892857145  2.099609375 6.55691964285717  C 3.49934895833331 5.16183035714283  5.18836805555554 4.46428571428572  7.16666666666669 4.46428571428572  C 8.65972222222223 4.46428571428572  10.0174696180555 4.88746279761904  11.2399088541667 5.73381696428572  C 12.4623480902778 6.58017113095235  13.3348524305555 7.69159226190476  13.857421875 9.06808035714283  L 14.3333333333333 10.2957589285714  L 14.3333333333333 7.14285714285717  C 14.3333333333333 5.17113095238096  15.033203125 3.48772321428572  16.4329427083333 2.09263392857144  C 17.8326822916667 0.697544642857167  19.5217013888889 0  21.5 0  C 23.4782986111111 0  25.1673177083333 0.697544642857167  26.5670572916667 2.09263392857144  C 27.966796875 3.48772321428572  28.6666666666667 5.17113095238096  28.6666666666667 7.14285714285717  L 28.6666666666667 14.4252232142857  C 29.1705729166667 14.3322172619048  29.6184895833333 14.2857142857143  30.0104166666667 14.2857142857143  C 31.2981770833333 14.2857142857143  32.4879557291667 14.6251860119048  33.5797526041667 15.3041294642857  Z M 32.2220052083333 18.7779017857143  C 31.6061197916667 18.1640625  30.8689236111111 17.8571428571428  30.0104166666667 17.8571428571428  C 29.39453125 17.8571428571428  28.8299696180555 18.0245535714286  28.3167317708333 18.359375  C 27.8034939236111 18.6941964285714  27.4162326388889 19.140625  27.1549479166667 19.6986607142857  L 25.0833333333333 24.2466517857143  L 23.095703125 28.5714285714286  L 24.6354166666667 28.5714285714286  C 25.5685763888889 28.5714285714286  26.4084201388889 28.8643973214286  27.1549479166667 29.4503348214286  C 27.9014756944445 30.0362723214286  28.3680555555555 30.7849702380952  28.5546875 31.6964285714286  L 32.8658854166667 22.265625  C 33.0525173611111 21.8936011904762  33.1458333333333 21.4657738095238  33.1458333333333 20.9821428571428  C 33.1458333333333 20.1264880952381  32.837890625 19.3917410714286  32.2220052083333 18.7779017857143  Z M 38.4928385416667 22.5027901785714  C 37.8956163194445 21.9168526785714  37.1304253472222 21.6238839285714  36.197265625 21.6238839285714  C 35.7866753472222 21.6238839285714  35.4087456597222 21.6982886904762  35.0634765625 21.8470982142857  C 34.7182074652778 21.9959077380952  34.4475911458333 22.1447172619048  34.2516276041667 22.2935267857143  C 34.0556640625 22.4423363095238  33.8363715277778 22.7167038690476  33.59375 23.1166294642857  C 33.3511284722222 23.5165550595238  33.1924913194445 23.8002232142857  33.1178385416667 23.9676339285714  C 33.0431857638889 24.1350446428572  32.8845486111111 24.4791666666667  32.6419270833333 25  L 28.9466145833333 33.0915178571429  C 28.7599826388889 33.4635416666667  28.6666666666667 33.891369047619  28.6666666666667 34.375  C 28.6666666666667 35.2306547619048  28.974609375 35.9654017857143  29.5904947916667 36.5792410714286  C 30.2063802083333 37.1930803571429  30.9435763888889 37.5  31.8020833333333 37.5  C 32.41796875 37.5  32.9825303819445 37.3325892857143  33.4957682291667 36.9977678571429  C 34.0090060763889 36.6629464285714  34.3962673611111 36.2165178571429  34.6575520833333 35.6584821428571  L 39.13671875 25.8370535714286  C 39.3046875 25.5022321428571  39.388671875 25.1488095238095  39.388671875 24.7767857142857  C 39.388671875 23.8467261904762  39.0900607638889 23.0887276785714  38.4928385416667 22.5027901785714  Z M 4.63313802083331 9.08203125  C 3.93326822916669 9.77957589285717  3.58333333333331 10.6212797619048  3.58333333333331 11.6071428571428  C 3.58333333333331 12.016369047619  3.65798611111109 12.4441964285714  3.80729166666669 12.890625  C 3.80729166666669 12.890625  5.99801087057176 18.6133536030636  7.09337047252427 21.4747179045953  C 8.31224698168285 24.6587405078254  10.75 31.0267857142857  10.75 31.0267857142857  L 10.75 32.9520089285714  L 13.60546875 29.8549107142857  C 14.4079861111111 28.999255952381  15.3971354166667 28.5714285714286  16.5729166666667 28.5714285714286  L 22.1158854166667 28.5714285714286  L 25 22.0703125  L 25 7.14285714285717  C 25.0833333333333 6.15699404761904  24.7333984375 5.31529017857144  24.0335286458333 4.61774553571428  C 23.3336588541667 3.92020089285717  22.4891493055555 3.57142857142856  21.5 3.57142857142856  C 20.5108506944445 3.57142857142856  19.6663411458333 3.92020089285717  18.9664713541667 4.61774553571428  C 18.2666015625 5.31529017857144  17.9166666666667 6.15699404761904  18 7.14285714285717  L 18 25  L 16.125 25  L 10.5260416666667 10.3236607142857  C 10.2647569444445 9.63541666666669  9.826171875 9.08203125  9.21028645833331 8.66350446428572  C 8.59440104166669 8.24497767857144  7.91319444444446 8.03571428571428  7.16666666666669 8.03571428571428  C 6.17751736111109 8.03571428571428  5.3330078125 8.38448660714283  4.63313802083331 9.08203125  Z M 14.3333333333333 46  L 33.0338541666667 46  C 33.8550347222222 46.4285714285714  34.5875651041667 46.1774553571428  35.2314453125 45.6752232142857  C 35.8753255208333 45.1729910714286  36.2999131944445 44.5219494047619  36.5052083333333 43.7220982142857  L 38.884765625 34.2633928571429  C 39.2393663194445 32.905505952381  39.4166666666667 31.4639136904762  39.4166666666667 29.9386160714286  L 39.4166666666667 27.3995535714286  L 35.4694010416667 36.0491071428571  C 35.1521267361111 36.7559523809524  34.6575520833333 37.3232886904762  33.9856770833333 37.7511160714286  C 33.3138020833333 38.178943452381  32.5859375 38.3928571428571  31.8020833333333 38.3928571428571  C 30.8129340277778 38.3928571428571  29.9404296875 38.0719866071429  29.1845703125 37.4302455357143  C 28.4287109375 36.7885044642857  27.9761284722222 35.9840029761905  27.8268229166667 35.0167410714286  C 27.0056423611111 36.0770089285714  25.9418402777778 36.6071428571429  24.6354166666667 36.6071428571429  L 18.8125 36.6071428571429  L 18.8125 35.7142857142857  L 24.6354166666667 35.7142857142857  C 25.4939236111111 35.7142857142857  26.2497829861111 35.4073660714286  26.9029947916667 34.7935267857143  C 27.5562065972222 34.1796875  27.8828125 33.4449404761905  27.8828125 32.5892857142857  C 27.8828125 31.733630952381  27.5935329861111 30.9988839285714  27.0149739583333 30.3850446428571  C 26.4364149305555 29.7712053571429  25.7178819444445 29.4642857142857  24.859375 29.4642857142857  L 16.5729166666667 29.4642857142857  C 15.6584201388889 29.4642857142857  14.8932291666667 29.7991071428571  14.27734375 30.46875  L 10.75 34.2633928571429  L 10.75 42.8571428571429  C 10.75 43.843005952381  11.0999348958333 44.6847098214286  11.7998046875 45.3822544642857  C 12.4996744791667 46.0797991071428  13.3441840277778 46.4285714285714  14.3333333333333 46  Z " fill-rule="nonzero" fill="#333333" stroke="none" transform="matrix(1 0 0 1 327 283 )" />
  </g>
</svg>