<?xml version="1.0" encoding="utf-8"?>
<svg version="1.1" xmlns:xlink="http://www.w3.org/1999/xlink" width="51px" height="51px" xmlns="http://www.w3.org/2000/svg">
  <g>
    <path d="M 33.0703125 30.08203125  C 35.3059895833333 31.7200520833333  36.8333333333333 33.8782552083333  37.65234375 36.556640625  C 37.8294270833333 37.1100260416667  37.78515625 37.6468098958333  37.51953125 38.1669921875  C 37.25390625 38.6871744791667  36.8444010416667 39.0358072916667  36.291015625 39.212890625  C 35.7376302083333 39.3899739583333  35.1953125 39.345703125  34.6640625 39.080078125  C 34.1328125 38.814453125  33.7786458333333 38.3938802083333  33.6015625 37.818359375  C 33.0481770833333 36.0475260416667  32.0244140625 34.6142578125  30.5302734375 33.5185546875  C 29.0361328125 32.4228515625  27.359375 31.875  25.5 31.875  C 23.640625 31.875  21.9638671875 32.4228515625  20.4697265625 33.5185546875  C 18.9755859375 34.6142578125  17.9518229166667 36.0475260416667  17.3984375 37.818359375  C 17.2213541666667 38.3938802083333  16.8727213541667 38.814453125  16.3525390625 39.080078125  C 15.8323567708333 39.345703125  15.2955729166667 39.3899739583333  14.7421875 39.212890625  C 14.1666666666667 39.0358072916667  13.74609375 38.6871744791667  13.48046875 38.1669921875  C 13.21484375 37.6468098958333  13.1705729166667 37.1100260416667  13.34765625 36.556640625  C 14.1666666666667 33.8782552083333  15.6940104166667 31.7200520833333  17.9296875 30.08203125  C 20.1653645833333 28.4440104166667  22.6888020833333 27.625  25.5 27.625  C 28.3111979166667 27.625  30.8346354166667 28.4440104166667  33.0703125 30.08203125  Z M 20.0048828125 13.9951171875  C 20.8349609375 14.8251953125  21.25 15.8268229166667  21.25 17  C 21.25 18.1731770833333  20.8349609375 19.1748046875  20.0048828125 20.0048828125  C 19.1748046875 20.8349609375  18.1731770833333 21.25  17 21.25  C 15.8268229166667 21.25  14.8251953125 20.8349609375  13.9951171875 20.0048828125  C 13.1650390625 19.1748046875  12.75 18.1731770833333  12.75 17  C 12.75 15.8268229166667  13.1650390625 14.8251953125  13.9951171875 13.9951171875  C 14.8251953125 13.1650390625  15.8268229166667 12.75  17 12.75  C 18.1731770833333 12.75  19.1748046875 13.1650390625  20.0048828125 13.9951171875  Z M 37.0048828125 13.9951171875  C 37.8349609375 14.8251953125  38.25 15.8268229166667  38.25 17  C 38.25 18.1731770833333  37.8349609375 19.1748046875  37.0048828125 20.0048828125  C 36.1748046875 20.8349609375  35.1731770833333 21.25  34 21.25  C 32.8268229166667 21.25  31.8251953125 20.8349609375  30.9951171875 20.0048828125  C 30.1650390625 19.1748046875  29.75 18.1731770833333  29.75 17  C 29.75 15.8268229166667  30.1650390625 14.8251953125  30.9951171875 13.9951171875  C 31.8251953125 13.1650390625  32.8268229166667 12.75  34 12.75  C 35.1731770833333 12.75  36.1748046875 13.1650390625  37.0048828125 13.9951171875  Z M 45.056640625 33.7509765625  C 46.185546875 31.1279296875  46.75 28.3776041666667  46.75 25.5  C 46.75 22.6223958333333  46.185546875 19.8720703125  45.056640625 17.2490234375  C 43.927734375 14.6259765625  42.4169921875 12.3681640625  40.5244140625 10.4755859375  C 38.6318359375 8.5830078125  36.3740234375 7.072265625  33.7509765625 5.943359375  C 31.1279296875 4.814453125  28.3776041666667 4.25  25.5 4.25  C 22.6223958333333 4.25  19.8720703125 4.814453125  17.2490234375 5.943359375  C 14.6259765625 7.072265625  12.3681640625 8.5830078125  10.4755859375 10.4755859375  C 8.5830078125 12.3681640625  7.072265625 14.6259765625  5.943359375 17.2490234375  C 4.814453125 19.8720703125  4.25 22.6223958333333  4.25 25.5  C 4.25 28.3776041666667  4.814453125 31.1279296875  5.943359375 33.7509765625  C 7.072265625 36.3740234375  8.5830078125 38.6318359375  10.4755859375 40.5244140625  C 12.3681640625 42.4169921875  14.6259765625 43.927734375  17.2490234375 45.056640625  C 19.8720703125 46.185546875  22.6223958333333 46.75  25.5 46.75  C 28.3776041666667 46.75  31.1279296875 46.185546875  33.7509765625 45.056640625  C 36.3740234375 43.927734375  38.6318359375 42.4169921875  40.5244140625 40.5244140625  C 42.4169921875 38.6318359375  43.927734375 36.3740234375  45.056640625 33.7509765625  Z M 47.580078125 12.7001953125  C 49.8600260416667 16.6070963541667  51 20.8736979166667  51 25.5  C 51 30.1263020833333  49.8600260416667 34.3929036458333  47.580078125 38.2998046875  C 46.6687395282887 39.8614674284665  45.6274274596615 41.2931566975172  44.4561419191184 42.594872494652  C 42.6971553987396 44.5497335949287  40.6450429882001 46.2114688050447  38.2998046875 47.580078125  C 34.3929036458333 49.8600260416667  30.1263020833333 51  25.5 51  C 20.8736979166667 51  16.6070963541667 49.8600260416667  12.7001953125 47.580078125  C 8.79329427083333 45.3001302083333  5.69986979166667 42.2067057291667  3.419921875 38.2998046875  C 1.13997395833333 34.3929036458333  0 30.1263020833333  0 25.5  C 0 20.8736979166667  1.13997395833333 16.6070963541667  3.419921875 12.7001953125  C 5.69986979166667 8.79329427083333  8.79329427083333 5.69986979166666  12.7001953125 3.419921875  C 16.6070963541667 1.13997395833333  20.8736979166667 0  25.5 0  C 30.1263020833333 0  34.3929036458333 1.13997395833333  38.2998046875 3.419921875  C 42.2067057291667 5.69986979166666  45.3001302083333 8.79329427083333  47.580078125 12.7001953125  Z " fill-rule="nonzero" fill="#333333" stroke="none" />
  </g>
</svg>