<?xml version="1.0" encoding="utf-8"?>
<svg version="1.1" xmlns:xlink="http://www.w3.org/1999/xlink" width="50px" height="46px" xmlns="http://www.w3.org/2000/svg">
  <g>
    <path d="M 25.4231770833333 4.21448863636364  C 25.3146701388889 4.19270833333333  25.1736111111111 4.18181818181818  25 4.18181818181818  C 23.8498263888889 4.18181818181818  22.8678385416667 4.59019886363636  22.0540364583333 5.40696022727273  C 21.240234375 6.22372159090909  20.8333333333333 7.2092803030303  20.8333333333333 8.36363636363636  L 20.8333333333333 12.5454545454545  L 19.7916666666667 12.5454545454545  L 19.7916666666667 9.50710227272727  C 19.7916666666667 8.46164772727273  19.4444444444444 7.57410037878787  18.75 6.84446022727273  C 18.0555555555556 6.11482007575757  17.1875 5.75  16.1458333333333 5.75  C 15.1475694444444 5.75  14.2903645833333 6.109375  13.57421875 6.828125  C 12.8580729166667 7.546875  12.5 8.40719696969697  13 9.40909090909091  L 13 23.4247159090909  L 11.4583333333333 22.4446022727273  L 11.4583333333333 16.8252840909091  C 11.4583333333333 15.7798295454545  11.1111111111111 14.8922821969697  10.4166666666667 14.1626420454545  C 9.72222222222222 13.4330018939394  8.85416666666667 13.0681818181818  7.8125 13.0681818181818  C 6.81423611111111 13.0681818181818  5.95703125 13.4275568181818  5.24088541666667 14.1463068181818  C 4.52473958333333 14.8650568181818  4.16666666666667 15.7253787878788  4.16666666666667 16.7272727272727  L 4.16666666666667 24.0454545454545  C 4.16666666666667 25.0691287878788  4.54644097222222 25.9621212121212  5.30598958333333 26.7244318181818  L 15.3971354166667 36.3948863636364  C 16.2434895833333 37.2443181818182  16.6666666666667 38.3551136363636  16.6666666666667 39.7272727272727  C 16.6666666666667 40.2935606060606  16.8728298611111 40.7836174242424  17.28515625 41.1974431818182  C 17.6974826388889 41.6112689393939  18.1857638888889 41.8181818181818  18.75 41  L 39.5833333333333 41  C 40.1475694444445 41.8181818181818  40.6358506944445 41.6112689393939  41.0481770833333 41.1974431818182  C 41.4605034722222 40.7836174242424  41.6666666666667 40.2935606060606  41.6666666666667 39.7272727272727  L 41.6666666666667 38.9105113636364  C 41.6666666666667 38.0175189393939  41.7751736111111 37.1789772727273  41.9921875 36.3948863636364  L 45.5078125 22.1505681818182  C 45.7248263888889 21.3664772727273  45.8333333333333 20.5279356060606  45.8333333333333 19.6349431818182  L 45.8333333333333 11.5980113636364  C 45.8333333333333 10.5525568181818  45.4861111111111 9.66500946969697  44.7916666666667 8.93536931818182  C 44.0972222222222 8.20572916666666  43.2291666666667 7.84090909090909  42.1875 7.84090909090909  C 41.1892361111111 7.84090909090909  40.33203125 8.20028409090909  39.6158854166667 8.91903409090909  C 38.8997395833333 9.63778409090909  38.5416666666667 10.4981060606061  38.5416666666667 11.5  L 38.5416666666667 12.5454545454545  L 37.5 12.5454545454545  L 37.5 8.46164772727273  C 37.5 7.5904356060606  37.2287326388889 6.80089962121212  36.6861979166667 6.09303977272727  C 36.1436631944445 5.38517992424242  35.44921875 4.94412878787879  34.6028645833333 4.76988636363636  C 34.2990451388889 4.72632575757575  34.0494791666667 4.70454545454546  33.8541666666667 4.70454545454546  C 32.8559027777778 4.70454545454546  31.9986979166667 5.06392045454546  31.2825520833333 5.78267045454546  C 30.56640625 6.50142045454546  30.2083333333333 7.36174242424242  30.2083333333333 8.36363636363636  L 30.2083333333333 12.5454545454545  L 29.1666666666667 12.5454545454545  L 29.1666666666667 8.55965909090909  C 29.1666666666667 7.44886363636364  28.8140190972222 6.47419507575757  28.1087239583333 5.63565340909091  C 27.4034288194444 4.79711174242424  26.5082465277778 4.32339015151515  25.4231770833333 4.21448863636364  Z M 19.3359375 2.25426136363636  C 20.8984375 0.751420454545455  22.7864583333333 0  25 0  C 26.8229166666667 0  28.4396701388889 0.544507575757571  29.8502604166667 1.63352272727273  C 31.0872395833333 0.892992424242424  32.421875 0.522727272727272  33.8541666666667 0.522727272727272  C 35.1345486111111 0.522727272727272  36.3389756944445 0.816761363636361  37.4674479166667 1.40482954545454  C 38.5959201388889 1.99289772727273  39.5290798611111 2.82054924242424  40.2669270833333 3.88778409090909  C 40.8528645833333 3.73532196969697  41.4930555555556 3.65909090909091  42.1875 3.65909090909091  C 44.3576388888889 3.65909090909091  46.2022569444445 4.43773674242424  47.7213541666667 5.99502840909091  C 49.2404513888889 7.55232007575757  50 9.41998106060606  50 11.5980113636364  L 50 19.6349431818182  C 50 20.7457386363636  49.8589409722222 21.921875  49.5768229166667 23.1633522727273  L 46.0286458333333 37.4076704545455  C 45.8984375 37.9303977272727  45.8333333333333 38.7035984848485  45.8333333333333 39.7272727272727  C 45.8333333333333 41.469696969697  45.2256944444445 42.9507575757576  44.0104166666667 44.1704545454545  C 42.7951388888889 45.3901515151515  41.3194444444445 46  39.5833333333333 46  L 18.75 46  C 16.9270833333333 46  15.4296875 45.3629261363636  14.2578125 44.0887784090909  C 13.0859375 42.8146306818182  12.5 41.2627840909091  12.5 39.4332386363636  L 2.47395833333333 29.7627840909091  C 0.824652777777778 28.172821969697  0 26.2670454545455  0 24.0454545454545  L 0 16.7272727272727  C 0 14.5710227272727  0.764973958333333 12.7251420454545  2.294921875 11.1896306818182  C 3.82486979166667 9.65411931818182  5.6640625 8.88636363636364  7.8125 8.88636363636364  C 8.05121527777778 8.88636363636364  8.22482638888889 8.89725378787879  8.33333333333333 8.91903409090909  C 8.46354166666667 6.8499053030303  9.28276909722222 5.10748106060606  10.791015625 3.69176136363636  C 12.2992621527778 2.27604166666666  14.0842013888889 1.56818181818182  16.1458333333333 1.56818181818182  C 17.2743055555556 1.56818181818182  18.3376736111111 1.796875  19.3359375 2.25426136363636  Z " fill-rule="nonzero" fill="#333333" stroke="none" />
  </g>
</svg>